<svg width="33" height="32" viewBox="0 0 33 32" fill="none" xmlns="http://www.w3.org/2000/svg">
<g clip-path="url(#clip0_3_55)">
<path d="M16.5 0C7.6776 0 0.5 7.1776 0.5 16C0.5 24.8224 7.6776 32 16.5 32C25.3224 32 32.5 24.8224 32.5 16C32.5 7.1776 25.3224 0 16.5 0ZM22.3769 17.0284L14.6194 24.7861C14.3354 25.0701 13.9632 25.2121 13.5909 25.2121C13.2186 25.2121 12.8464 25.0702 12.5624 24.786C11.9944 24.2181 11.9944 23.2971 12.5624 22.729L19.2915 15.9997L12.5624 9.27079C11.9944 8.70284 11.9944 7.78182 12.5624 7.21377C13.1304 6.64572 14.0514 6.64572 14.6195 7.21377L22.377 14.9712C22.6499 15.2439 22.8031 15.6139 22.8031 15.9996C22.803 16.3856 22.6498 16.7556 22.3769 17.0284Z" fill="white"/>
</g>
<defs>
<clipPath id="clip0_3_55">
<rect width="32" height="32" fill="white" transform="translate(0.5)"/>
</clipPath>
</defs>
</svg>
